<?xml version="1.0" standalone="no"?><!-- Generator: Gravit.io --><svg xmlns="http://www.w3.org/2000/svg" xmlns:xlink="http://www.w3.org/1999/xlink" style="isolation:isolate" viewBox="0 0 128 24" width="128" height="24"><defs><filter id="VTHswNxfYXS5fLE5v2HUNRSmaZlXZ6Pd" x="-200%" y="-200%" width="400%" height="400%"><feOffset xmlns="http://www.w3.org/2000/svg" in="SourceAlpha" result="offOut" dx="1" dy="1"/><feGaussianBlur xmlns="http://www.w3.org/2000/svg" in="offOut" result="blurOut" stdDeviation="1.5"/><feComponentTransfer xmlns="http://www.w3.org/2000/svg" in="blurOut" result="opacOut"><feFuncA xmlns="http://www.w3.org/2000/svg" type="table" tableValues="0 0.5"/></feComponentTransfer><feBlend xmlns="http://www.w3.org/2000/svg" in="SourceGraphic" in2="opacOut" mode="normal"/></filter></defs><g filter="url(#VTHswNxfYXS5fLE5v2HUNRSmaZlXZ6Pd)"><path d=" M 58.814 1.497 L 53.263 22.503 L 52.281 22.503 L 48.194 6.697 L 48.136 5.877 L 48.048 6.697 L 43.99 22.503 L 43.009 22.503 L 37.428 1.497 L 39.317 1.497 L 43.434 17.464 L 43.492 18.24 L 43.551 17.464 L 47.594 1.497 L 48.648 1.497 L 52.691 17.464 L 52.75 18.24 L 52.823 17.464 L 56.925 1.497 L 58.814 1.497 Z  M 71.09 22.503 L 69.698 17.61 L 63.048 17.61 L 61.671 22.503 L 59.708 22.503 L 65.86 1.497 L 66.856 1.497 L 73.038 22.503 L 71.09 22.503 Z  M 66.314 6.126 L 63.561 15.809 L 69.2 15.809 L 66.432 6.126 L 66.373 5.35 L 66.314 6.126 Z  M 85.357 22.503 L 75.426 22.503 L 75.426 1.497 L 77.315 1.497 L 77.315 20.701 L 85.357 20.701 L 85.357 22.503 Z  M 97.984 22.503 L 88.053 22.503 L 88.053 1.497 L 89.942 1.497 L 89.942 20.701 L 97.984 20.701 L 97.984 22.503 Z  M 112.809 22.503 L 100.987 22.503 L 100.987 1.497 L 112.809 1.497 L 112.809 3.299 L 102.877 3.299 L 102.877 11.106 L 110.919 11.106 L 110.919 12.908 L 102.877 12.908 L 102.877 20.701 L 112.809 20.701 L 112.809 22.503 Z  M 126.52 3.299 L 121.51 3.299 L 121.51 22.503 L 119.62 22.503 L 119.62 3.299 L 114.61 3.299 L 114.61 1.497 L 126.52 1.497 L 126.52 3.299 Z  M 13.302 17.347 L 13.302 17.347 L 13.302 17.347 Q 13.302 18.416 12.899 19.354 L 12.899 19.354 L 12.899 19.354 Q 12.496 20.291 11.793 20.994 L 11.793 20.994 L 11.793 20.994 Q 11.09 21.697 10.145 22.1 L 10.145 22.1 L 10.145 22.1 Q 9.2 22.503 8.131 22.503 L 8.131 22.503 L 1.48 22.503 L 1.48 1.497 L 8.131 1.497 L 8.131 1.497 Q 9.2 1.497 10.145 1.9 L 10.145 1.9 L 10.145 1.9 Q 11.09 2.303 11.793 3.006 L 11.793 3.006 L 11.793 3.006 Q 12.496 3.709 12.899 4.654 L 12.899 4.654 L 12.899 4.654 Q 13.302 5.599 13.302 6.668 L 13.302 6.668 L 13.302 6.873 L 13.302 6.873 Q 13.302 7.62 13.104 8.301 L 13.104 8.301 L 13.104 8.301 Q 12.906 8.982 12.54 9.568 L 12.54 9.568 L 12.54 9.568 Q 12.174 10.154 11.676 10.63 L 11.676 10.63 L 11.676 10.63 Q 11.178 11.106 10.563 11.429 L 10.563 11.429 L 10.563 11.429 Q 11.178 11.751 11.676 12.227 L 11.676 12.227 L 11.676 12.227 Q 12.174 12.703 12.54 13.296 L 12.54 13.296 L 12.54 13.296 Q 12.906 13.89 13.104 14.571 L 13.104 14.571 L 13.104 14.571 Q 13.302 15.252 13.302 15.999 L 13.302 15.999 L 13.302 17.347 Z  M 11.412 17.347 L 11.412 15.691 L 11.412 15.691 Q 11.412 14.988 11.148 14.38 L 11.148 14.38 L 11.148 14.38 Q 10.885 13.772 10.423 13.318 L 10.423 13.318 L 10.423 13.318 Q 9.962 12.864 9.354 12.601 L 9.354 12.601 L 9.354 12.601 Q 8.746 12.337 8.043 12.337 L 8.043 12.337 L 3.37 12.337 L 3.37 20.701 L 8.043 20.701 L 8.043 20.701 Q 8.746 20.701 9.354 20.438 L 9.354 20.438 L 9.354 20.438 Q 9.962 20.174 10.423 19.72 L 10.423 19.72 L 10.423 19.72 Q 10.885 19.266 11.148 18.658 L 11.148 18.658 L 11.148 18.658 Q 11.412 18.05 11.412 17.347 L 11.412 17.347 Z  M 11.412 7.166 L 11.412 6.668 L 11.412 6.668 Q 11.412 5.965 11.148 5.357 L 11.148 5.357 L 11.148 5.357 Q 10.885 4.749 10.423 4.288 L 10.423 4.288 L 10.423 4.288 Q 9.962 3.826 9.354 3.563 L 9.354 3.563 L 9.354 3.563 Q 8.746 3.299 8.043 3.299 L 8.043 3.299 L 3.37 3.299 L 3.37 10.535 L 8.043 10.535 L 8.043 10.535 Q 8.746 10.535 9.354 10.271 L 9.354 10.271 L 9.354 10.271 Q 9.962 10.008 10.423 9.546 L 10.423 9.546 L 10.423 9.546 Q 10.885 9.085 11.148 8.477 L 11.148 8.477 L 11.148 8.477 Q 11.412 7.869 11.412 7.166 L 11.412 7.166 Z  M 27.818 17.64 L 27.818 17.64 L 27.818 17.64 Q 27.818 18.709 27.416 19.646 L 27.416 19.646 L 27.416 19.646 Q 27.013 20.584 26.31 21.287 L 26.31 21.287 L 26.31 21.287 Q 25.606 21.99 24.669 22.393 L 24.669 22.393 L 24.669 22.393 Q 23.731 22.796 22.662 22.796 L 22.662 22.796 L 21.769 22.796 L 21.769 22.796 Q 20.699 22.796 19.754 22.393 L 19.754 22.393 L 19.754 22.393 Q 18.81 21.99 18.106 21.287 L 18.106 21.287 L 18.106 21.287 Q 17.403 20.584 17 19.646 L 17 19.646 L 17 19.646 Q 16.598 18.709 16.598 17.64 L 16.598 17.64 L 16.598 17.098 L 18.487 16.805 L 18.487 17.64 L 18.487 17.64 Q 18.487 18.343 18.751 18.951 L 18.751 18.951 L 18.751 18.951 Q 19.015 19.559 19.476 20.02 L 19.476 20.02 L 19.476 20.02 Q 19.938 20.481 20.545 20.745 L 20.545 20.745 L 20.545 20.745 Q 21.153 21.009 21.856 21.009 L 21.856 21.009 L 22.574 21.009 L 22.574 21.009 Q 23.277 21.009 23.885 20.745 L 23.885 20.745 L 23.885 20.745 Q 24.493 20.481 24.947 20.02 L 24.947 20.02 L 24.947 20.02 Q 25.401 19.559 25.665 18.951 L 25.665 18.951 L 25.665 18.951 Q 25.929 18.343 25.929 17.64 L 25.929 17.64 L 25.929 15.896 L 25.929 15.896 Q 25.929 15.193 25.665 14.585 L 25.665 14.585 L 25.665 14.585 Q 25.401 13.978 24.947 13.523 L 24.947 13.523 L 24.947 13.523 Q 24.493 13.069 23.885 12.806 L 23.885 12.806 L 23.885 12.806 Q 23.277 12.542 22.574 12.542 L 22.574 12.542 L 21.168 12.542 L 21.168 10.74 L 22.574 10.74 L 22.574 10.74 Q 23.277 10.74 23.885 10.477 L 23.885 10.477 L 23.885 10.477 Q 24.493 10.213 24.947 9.759 L 24.947 9.759 L 24.947 9.759 Q 25.401 9.305 25.665 8.697 L 25.665 8.697 L 25.665 8.697 Q 25.929 8.089 25.929 7.386 L 25.929 7.386 L 25.929 6.36 L 25.929 6.36 Q 25.929 5.657 25.665 5.049 L 25.665 5.049 L 25.665 5.049 Q 25.401 4.441 24.947 3.987 L 24.947 3.987 L 24.947 3.987 Q 24.493 3.533 23.885 3.27 L 23.885 3.27 L 23.885 3.27 Q 23.277 3.006 22.574 3.006 L 22.574 3.006 L 21.856 3.006 L 21.856 3.006 Q 21.153 3.006 20.545 3.27 L 20.545 3.27 L 20.545 3.27 Q 19.938 3.533 19.476 3.987 L 19.476 3.987 L 19.476 3.987 Q 19.015 4.441 18.751 5.049 L 18.751 5.049 L 18.751 5.049 Q 18.487 5.657 18.487 6.36 L 18.487 6.36 L 18.487 7.21 L 16.598 6.902 L 16.598 6.36 L 16.598 6.36 Q 16.598 5.291 17 4.354 L 17 4.354 L 17 4.354 Q 17.403 3.416 18.106 2.713 L 18.106 2.713 L 18.106 2.713 Q 18.81 2.01 19.754 1.607 L 19.754 1.607 L 19.754 1.607 Q 20.699 1.204 21.769 1.204 L 21.769 1.204 L 22.662 1.204 L 22.662 1.204 Q 23.731 1.204 24.669 1.607 L 24.669 1.607 L 24.669 1.607 Q 25.606 2.01 26.31 2.713 L 26.31 2.713 L 26.31 2.713 Q 27.013 3.416 27.416 4.354 L 27.416 4.354 L 27.416 4.354 Q 27.818 5.291 27.818 6.36 L 27.818 6.36 L 27.818 7.078 L 27.818 7.078 Q 27.818 7.825 27.621 8.506 L 27.621 8.506 L 27.621 8.506 Q 27.423 9.188 27.064 9.773 L 27.064 9.773 L 27.064 9.773 Q 26.705 10.359 26.207 10.835 L 26.207 10.835 L 26.207 10.835 Q 25.709 11.312 25.094 11.648 L 25.094 11.648 L 25.094 11.648 Q 25.709 11.971 26.207 12.447 L 26.207 12.447 L 26.207 12.447 Q 26.705 12.923 27.064 13.509 L 27.064 13.509 L 27.064 13.509 Q 27.423 14.095 27.621 14.776 L 27.621 14.776 L 27.621 14.776 Q 27.818 15.457 27.818 16.204 L 27.818 16.204 L 27.818 17.64 Z " fill-rule="evenodd" fill="rgb(255,255,255)"/></g></svg>