<?xml version="1.0" standalone="no"?><!-- Generator: Gravit.io --><svg xmlns="http://www.w3.org/2000/svg" xmlns:xlink="http://www.w3.org/1999/xlink" style="isolation:isolate" viewBox="0 0 128 64" width="128" height="64"><g id="null"><path d=" M 50.558 44.058 L 46.522 19.942 L 48.512 19.942 L 51.805 40.569 L 54.916 19.942 L 57.62 19.942 L 60.465 40.569 L 63.743 19.942 L 65.719 19.942 L 61.712 44.058 L 59.259 44.058 L 56.247 22.759 L 52.996 44.058 L 50.558 44.058 Z  M 70.329 36.365 L 75.374 36.365 L 72.837 22.156 L 70.329 36.365 Z  M 68.844 44.058 L 66.7 44.058 L 71.464 19.942 L 74.239 19.942 L 79.003 44.058 L 76.845 44.058 L 75.64 37.78 L 70.077 37.78 L 68.844 44.058 Z  M 81.707 44.058 L 81.707 19.942 L 83.837 19.942 L 83.837 42.348 L 90.577 42.348 L 90.577 44.058 L 81.707 44.058 Z  M 92.525 44.058 L 92.525 19.942 L 94.655 19.942 L 94.655 42.348 L 101.395 42.348 L 101.395 44.058 L 92.525 44.058 Z  M 103.342 44.058 L 103.342 19.942 L 111.75 19.942 L 111.75 21.652 L 105.472 21.652 L 105.472 30.788 L 109.956 30.788 L 109.956 32.399 L 105.472 32.399 L 105.472 42.348 L 111.75 42.348 L 111.75 44.058 L 103.342 44.058 Z  M 116.626 44.058 L 116.626 21.652 L 111.932 21.652 L 111.932 19.942 L 123.492 19.942 L 123.492 21.652 L 118.756 21.652 L 118.756 44.058 L 116.626 44.058 Z " fill-rule="evenodd" fill="rgb(255,207,136)"/><path d=" M 17.436 31.732 L 17.436 31.732 Q 19.48 32.234 20.602 33.725 L 20.602 33.725 L 20.602 33.725 Q 21.724 35.215 21.724 37.426 L 21.724 37.426 L 21.724 37.426 Q 21.724 40.541 19.697 42.182 L 19.697 42.182 L 19.697 42.182 Q 17.671 43.823 13.953 43.823 L 13.953 43.823 L 5.613 43.823 L 5.613 43.823 Q 5.144 43.823 4.826 43.522 L 4.826 43.522 L 4.826 43.522 Q 4.508 43.22 4.508 42.785 L 4.508 42.785 L 4.508 21.249 L 4.508 21.249 Q 4.508 20.813 4.826 20.512 L 4.826 20.512 L 4.826 20.512 Q 5.144 20.21 5.613 20.21 L 5.613 20.21 L 13.618 20.21 L 13.618 20.21 Q 17.235 20.21 19.212 21.818 L 19.212 21.818 L 19.212 21.818 Q 21.188 23.426 21.188 26.407 L 21.188 26.407 L 21.188 26.407 Q 21.188 28.316 20.2 29.689 L 20.2 29.689 L 20.2 29.689 Q 19.212 31.062 17.436 31.732 L 17.436 31.732 Z  M 6.551 21.985 L 6.551 30.928 L 13.317 30.928 L 13.317 30.928 Q 16.164 30.928 17.637 29.756 L 17.637 29.756 L 17.637 29.756 Q 19.111 28.584 19.111 26.373 L 19.111 26.373 L 19.111 26.373 Q 19.111 21.985 13.317 21.985 L 13.317 21.985 L 6.551 21.985 Z  M 13.819 42.048 L 13.819 42.048 Q 16.8 42.048 18.224 40.926 L 18.224 40.926 L 18.224 40.926 Q 19.647 39.804 19.647 37.493 L 19.647 37.493 L 19.647 37.493 Q 19.647 32.737 13.819 32.737 L 13.819 32.737 L 6.551 32.737 L 6.551 42.048 L 13.819 42.048 Z  M 36.863 31.699 L 36.863 31.699 Q 39.04 32.268 40.162 33.742 L 40.162 33.742 L 40.162 33.742 Q 41.284 35.215 41.284 37.459 L 41.284 37.459 L 41.284 37.459 Q 41.284 40.507 39.274 42.282 L 39.274 42.282 L 39.274 42.282 Q 37.264 44.058 33.815 44.058 L 33.815 44.058 L 33.815 44.058 Q 31.638 44.058 29.628 43.287 L 29.628 43.287 L 29.628 43.287 Q 27.618 42.517 26.312 41.211 L 26.312 41.211 L 26.312 41.211 Q 25.877 40.809 25.877 40.239 L 25.877 40.239 L 25.877 40.239 Q 25.877 39.871 26.078 39.603 L 26.078 39.603 L 26.078 39.603 Q 26.279 39.335 26.547 39.335 L 26.547 39.335 L 26.547 39.335 Q 26.949 39.335 27.317 39.67 L 27.317 39.67 L 27.317 39.67 Q 28.891 41.043 30.449 41.646 L 30.449 41.646 L 30.449 41.646 Q 32.006 42.249 33.815 42.249 L 33.815 42.249 L 33.815 42.249 Q 36.394 42.249 37.8 41.01 L 37.8 41.01 L 37.8 41.01 Q 39.207 39.77 39.207 37.459 L 39.207 37.459 L 39.207 37.459 Q 39.207 32.737 33.379 32.737 L 33.379 32.737 L 31.671 32.737 L 31.671 32.737 Q 31.236 32.737 30.968 32.469 L 30.968 32.469 L 30.968 32.469 Q 30.7 32.201 30.7 31.833 L 30.7 31.833 L 30.7 31.833 Q 30.7 31.464 30.951 31.196 L 30.951 31.196 L 30.951 31.196 Q 31.202 30.928 31.671 30.928 L 31.671 30.928 L 32.877 30.928 L 32.877 30.928 Q 35.657 30.928 37.181 29.639 L 37.181 29.639 L 37.181 29.639 Q 38.705 28.349 38.705 25.971 L 38.705 25.971 L 38.705 25.971 Q 38.705 23.962 37.482 22.856 L 37.482 22.856 L 37.482 22.856 Q 36.26 21.751 34.049 21.751 L 34.049 21.751 L 34.049 21.751 Q 32.341 21.751 30.817 22.371 L 30.817 22.371 L 30.817 22.371 Q 29.293 22.99 27.685 24.33 L 27.685 24.33 L 27.685 24.33 Q 27.317 24.665 26.915 24.665 L 26.915 24.665 L 26.915 24.665 Q 26.647 24.665 26.446 24.397 L 26.446 24.397 L 26.446 24.397 Q 26.245 24.129 26.245 23.761 L 26.245 23.761 L 26.245 23.761 Q 26.245 23.191 26.681 22.789 L 26.681 22.789 L 26.681 22.789 Q 27.987 21.483 29.963 20.713 L 29.963 20.713 L 29.963 20.713 Q 31.939 19.942 34.049 19.942 L 34.049 19.942 L 34.049 19.942 Q 37.131 19.942 38.956 21.533 L 38.956 21.533 L 38.956 21.533 Q 40.781 23.124 40.781 25.871 L 40.781 25.871 L 40.781 25.871 Q 40.781 27.947 39.743 29.505 L 39.743 29.505 L 39.743 29.505 Q 38.705 31.062 36.863 31.699 L 36.863 31.699 Z " fill-rule="evenodd" fill="rgb(255,255,0)"/></g></svg>